<svg width="96" height="96" viewBox="0 0 96 96" fill="none" xmlns="http://www.w3.org/2000/svg">
<path d="M70.9519 23.3862C59.5083 12.18 39.701 10.9437 26.9508 20.6374C14.2007 30.331 10.0975 49.7511 17.8358 63.7773C25.5772 77.7999 44.1952 84.6826 59.1955 79.0573C69.7276 75.1121 82.9422 62.3447 84.269 50.4833C85.2882 41.3956 77.1873 29.4952 70.9519 23.3862Z" fill="#ED1C24"/>
<path d="M76.2006 37.9416C72.4813 35.669 68.7553 33.397 65.036 31.1245C60.8095 34.6649 56.5865 38.2083 52.3599 41.7487C53.1326 36.1187 53.9119 30.4881 54.6845 24.8581C50.7477 23.6765 46.8144 22.4979 42.8776 21.3162C43.5046 21.5038 50.1389 17.6246 51.8814 17.4558C55.4725 17.1098 58.989 17.9269 62.1046 19.7157C68.7881 23.555 73.9429 30.6698 76.2006 37.9416Z" fill="#22B573"/>
</svg>
