<svg width="64" height="88" viewBox="0 0 64 88" fill="none" xmlns="http://www.w3.org/2000/svg">
<path d="M-19.183 33.2275C-23.5378 44.599 -23.5845 57.7334 -17.0756 68.2175C-8.92065 81.3519 9.16977 88.3628 25.4447 85.5024C41.7197 82.6479 55.3444 70.6109 59.9969 56.1281C64.9763 40.6353 60.353 12.0491 41.6905 4.72885C16.2098 -5.25912 -10.7828 11.2844 -19.183 33.2275Z" fill="#FFE861"/>
<path d="M-20.8759 32.7606C-24.6177 42.5384 -25.289 53.9157 -21.2903 63.7227C-17.6477 72.6482 -10.4909 79.4839 -1.79306 83.4885C6.95152 87.5164 16.8636 88.8823 26.3437 87.1136C35.7596 85.3565 44.5742 80.4997 51.2523 73.6581C57.1541 67.6105 61.4913 59.905 62.8982 51.5281C64.1591 44.0094 63.7271 36.1813 61.9058 28.7911C60.0786 21.3833 56.6579 14.0222 51.0539 8.71006C44.6268 2.6157 35.4094 0.152275 26.7231 0.0063375C17.4824 -0.151275 8.29415 2.63905 0.454378 7.4725C-7.20443 12.195 -13.7658 18.879 -18.1089 26.7771C-19.1713 28.7035 -20.082 30.7116 -20.8759 32.7606C-21.2144 33.642 -20.5023 34.6811 -19.65 34.9146C-18.6634 35.189 -17.8345 34.576 -17.4959 33.6887C-14.548 26.0416 -9.23004 19.1942 -2.72122 13.9638C3.85764 8.67503 11.9718 4.98573 20.477 3.85325C24.5458 3.31036 29.2099 3.39209 33.302 4.15097C35.5962 4.5771 37.8553 5.19004 40.056 5.9781C41.1768 6.38089 41.6555 6.56769 42.6012 7.02885C43.3775 7.40829 44.1364 7.83443 44.8719 8.29559C45.2456 8.52909 45.6191 8.78011 45.9811 9.03695C46.1387 9.14787 46.2963 9.26462 46.4539 9.37553C46.5415 9.43974 46.629 9.50979 46.7224 9.57401C46.9676 9.76081 46.413 9.32299 46.8275 9.65573C47.4988 10.1928 48.1468 10.759 48.7656 11.3544C49.4077 11.9732 50.0206 12.6212 50.6044 13.2983C50.8787 13.6194 51.1473 13.9405 51.4099 14.2732C51.48 14.3608 51.55 14.4483 51.6201 14.5359C51.5734 14.4775 51.445 14.3082 51.6551 14.5826C51.7894 14.7635 51.9236 14.9445 52.0579 15.1313C53.1087 16.5907 54.0485 18.1376 54.8774 19.7371C55.7822 21.4825 56.3426 22.7901 56.9731 24.5355C58.2457 28.0439 59.1038 31.6865 59.635 35.3816C59.6875 35.7377 59.6525 35.5217 59.6408 35.44C59.6583 35.5567 59.67 35.6735 59.6875 35.7902C59.7167 36.0237 59.7459 36.2572 59.7693 36.4907C59.8218 36.9577 59.8685 37.4189 59.9094 37.8859C59.9911 38.8082 60.0495 39.7305 60.0845 40.6587C60.1545 42.4041 60.1429 44.1495 60.0436 45.895C59.9969 46.7589 59.921 47.6229 59.8276 48.4868C59.8043 48.697 59.7809 48.9071 59.7517 49.1173C59.7401 49.1931 59.7342 49.2749 59.7226 49.3508C59.6875 49.631 59.7634 49.0764 59.7226 49.3566C59.6583 49.7944 59.5941 50.2264 59.5182 50.6642C59.2614 52.1703 58.9287 53.6588 58.485 55.1182C57.2883 59.0877 55.3911 62.7712 52.9452 66.2153C47.9483 73.2553 40.5405 78.8593 32.3972 81.819C23.8803 84.9128 14.7329 85.1522 6.05838 82.6771C-2.06158 80.3654 -9.85465 75.5962 -14.6764 68.6671C-20.3271 60.5471 -21.6114 50.203 -19.5624 40.647C-19.0546 38.2828 -18.3599 35.9537 -17.4959 33.6946C-17.1574 32.8131 -17.8695 31.774 -18.7218 31.5405C-19.7084 31.2662 -20.5373 31.8733 -20.8759 32.7606Z" fill="#FFFF00"/>
</svg>
