<svg width="26" height="26" viewBox="0 0 26 26" fill="none" xmlns="http://www.w3.org/2000/svg">
<path d="M13 24.9783C19.6274 24.9783 25 19.7225 25 13.2391C25 6.75579 19.6274 1.5 13 1.5C6.37258 1.5 1 6.75579 1 13.2391C1 19.7225 6.37258 24.9783 13 24.9783Z" fill="white" stroke="black" stroke-width="1.3574" stroke-miterlimit="10"/>
<path d="M8.61003 11.6934C8.85856 11.6934 9.06003 11.4963 9.06003 11.2532C9.06003 11.0101 8.85856 10.813 8.61003 10.813C8.3615 10.813 8.16003 11.0101 8.16003 11.2532C8.16003 11.4963 8.3615 11.6934 8.61003 11.6934Z" fill="black" stroke="black" stroke-width="1.3574" stroke-miterlimit="10"/>
<path d="M17.66 11.6934C17.9085 11.6934 18.11 11.4963 18.11 11.2532C18.11 11.0101 17.9085 10.813 17.66 10.813C17.4115 10.813 17.21 11.0101 17.21 11.2532C17.21 11.4963 17.4115 11.6934 17.66 11.6934Z" fill="black" stroke="black" stroke-width="1.3574" stroke-miterlimit="10"/>
<path d="M15.85 17.0054C15.85 18.4728 14.63 19.6565 13.14 19.6565C11.65 19.6565 10.43 18.463 10.43 17.0054" fill="white"/>
<path d="M15.85 17.0054C15.85 18.4728 14.63 19.6565 13.14 19.6565C11.65 19.6565 10.43 18.463 10.43 17.0054" stroke="black" stroke-width="1.3574" stroke-miterlimit="10"/>
</svg>
